<svg width="17" height="13" viewBox="0 0 17 13" fill="none" xmlns="http://www.w3.org/2000/svg">
<path d="M1.37492 12.0416C1.15061 12.0416 0.962724 11.9656 0.811252 11.8136C0.659252 11.6622 0.583252 11.4743 0.583252 11.25V7.29165C0.583252 6.9354 0.655821 6.61213 0.80096 6.32185C0.946099 6.03158 1.13742 5.77429 1.37492 5.54998V3.33331C1.37492 2.67359 1.60582 2.11283 2.06763 1.65102C2.52943 1.18922 3.0902 0.958313 3.74992 0.958313H6.91658C7.22006 0.958313 7.50374 1.01452 7.76763 1.12694C8.03152 1.23883 8.27561 1.39373 8.49992 1.59165C8.72422 1.39373 8.96832 1.23883 9.23221 1.12694C9.4961 1.01452 9.77978 0.958313 10.0833 0.958313H13.2499C13.9096 0.958313 14.4704 1.18922 14.9322 1.65102C15.394 2.11283 15.6249 2.67359 15.6249 3.33331V5.54998C15.8624 5.77429 16.0537 6.03158 16.1989 6.32185C16.344 6.61213 16.4166 6.9354 16.4166 7.29165V11.25C16.4166 11.4743 16.3406 11.6622 16.1886 11.8136C16.0371 11.9656 15.8492 12.0416 15.6249 12.0416C15.4006 12.0416 15.2127 11.9656 15.0613 11.8136C14.9093 11.6622 14.8333 11.4743 14.8333 11.25V10.4583H2.16659V11.25C2.16659 11.4743 2.09085 11.6622 1.93938 11.8136C1.78738 11.9656 1.59922 12.0416 1.37492 12.0416ZM9.29158 4.91665H14.0416V3.33331C14.0416 3.10901 13.9656 2.92085 13.8136 2.76885C13.6621 2.61738 13.4742 2.54165 13.2499 2.54165H10.0833C9.85895 2.54165 9.67106 2.61738 9.51958 2.76885C9.36758 2.92085 9.29158 3.10901 9.29158 3.33331V4.91665ZM2.95825 4.91665H7.70825V3.33331C7.70825 3.10901 7.63252 2.92085 7.48104 2.76885C7.32904 2.61738 7.14089 2.54165 6.91658 2.54165H3.74992C3.52561 2.54165 3.33746 2.61738 3.18546 2.76885C3.03399 2.92085 2.95825 3.10901 2.95825 3.33331V4.91665ZM2.16659 8.87498H14.8333V7.29165C14.8333 7.06734 14.7573 6.87919 14.6053 6.72719C14.4538 6.57572 14.2659 6.49998 14.0416 6.49998H2.95825C2.73395 6.49998 2.54579 6.57572 2.39379 6.72719C2.24232 6.87919 2.16659 7.06734 2.16659 7.29165V8.87498Z" fill="#656768"/>
</svg>
