<svg width="30" height="30" viewBox="0 0 30 30" fill="none" xmlns="http://www.w3.org/2000/svg">
<g clip-path="url(#clip0_1_2220)">
<path d="M25.7167 17.45C26.265 17.5174 26.793 17.6991 27.2667 17.9833H27.3084C27.8005 15.6569 27.6242 13.2387 26.8 11.0083C26.7232 10.8021 26.5679 10.6347 26.368 10.5426C26.1682 10.4505 25.9401 10.4411 25.7334 10.5166C25.5272 10.5935 25.3598 10.7488 25.2677 10.9486C25.1756 11.1484 25.1662 11.3766 25.2417 11.5833C25.9304 13.4593 26.0946 15.4876 25.7167 17.45ZM21.9417 23.8166C20.4896 25.028 18.7457 25.8382 16.8834 26.1666C16.7739 26.1759 16.6674 26.2067 16.5698 26.2572C16.4723 26.3076 16.3857 26.3768 16.3149 26.4608C16.244 26.5447 16.1905 26.6418 16.1572 26.7465C16.1239 26.8512 16.1116 26.9614 16.1209 27.0708C16.1302 27.1802 16.1609 27.2868 16.2114 27.3843C16.2619 27.4818 16.3311 27.5685 16.415 27.6393C16.499 27.7101 16.5961 27.7637 16.7007 27.797C16.8054 27.8302 16.9156 27.8426 17.025 27.8333H17.175C19.3947 27.4417 21.4692 26.4635 23.1834 25V24.9416C22.6927 24.6612 22.269 24.2773 21.9417 23.8166ZM13.0167 26.1166C11.7559 25.8814 10.546 25.4273 9.44169 24.775C8.96967 24.4959 8.51596 24.1869 8.08336 23.85C7.76563 24.3167 7.35055 24.709 6.86669 25C7.40782 25.4565 7.98467 25.8689 8.59169 26.2333C9.86448 26.983 11.2572 27.5074 12.7084 27.7833H12.8667C13.0877 27.8032 13.3076 27.7345 13.4779 27.5922C13.6483 27.45 13.7551 27.246 13.775 27.025C13.7949 26.8039 13.7262 26.5841 13.584 26.4137C13.4418 26.2434 13.2377 26.1365 13.0167 26.1166ZM3.80003 17.625C3.9683 17.6122 4.13542 17.5871 4.30003 17.55C3.90278 15.585 4.05856 13.5483 4.75003 11.6666C4.82628 11.4589 4.81687 11.2293 4.72389 11.0285C4.6309 10.8277 4.46195 10.672 4.25419 10.5958C4.04644 10.5195 3.81691 10.5289 3.61609 10.6219C3.41527 10.7149 3.25961 10.8839 3.18336 11.0916C2.35794 13.3402 2.19596 15.7786 2.71669 18.1166C3.0511 17.8993 3.4163 17.7336 3.80003 17.625Z" fill="#BFBFBF"/>
<path d="M26.5833 19.1666C26.2857 18.9773 25.9535 18.8488 25.6059 18.7887C25.2583 18.7287 24.9023 18.7382 24.5583 18.8166C24.1224 18.9308 23.7215 19.1512 23.3917 19.4583L20.1667 17.5916C20.6746 16.3368 20.7214 14.9426 20.2988 13.6565C19.8762 12.3704 19.0116 11.2757 17.8583 10.5666L17.7667 10.5083C17.1448 10.1543 16.4597 9.92497 15.75 9.83332V6.66665C16.4141 6.46797 16.9755 6.02003 17.3167 5.41665C17.6848 4.79345 17.7924 4.05024 17.6161 3.34822C17.4398 2.64621 16.9939 2.042 16.375 1.66665C16.0735 1.49026 15.7399 1.37582 15.3936 1.33003C15.0473 1.28424 14.6953 1.30802 14.3583 1.39998C14.0109 1.48855 13.6846 1.64544 13.3984 1.86149C13.1123 2.07754 12.872 2.34841 12.6917 2.65832C12.3339 3.27851 12.2322 4.01377 12.408 4.70781C12.5839 5.40186 13.0234 5.99996 13.6333 6.37498C13.8239 6.50127 14.0315 6.5995 14.25 6.66665V9.83332C13.4108 9.9485 12.6092 10.2548 11.907 10.7287C11.2048 11.2026 10.6208 11.8314 10.2 12.5666C9.76512 13.3185 9.50754 14.1597 9.44688 15.0262C9.38623 15.8926 9.52411 16.7615 9.85002 17.5666L6.51668 19.475C6.39889 19.3714 6.27355 19.2766 6.14168 19.1916C5.83802 19.017 5.50293 18.9039 5.15555 18.8588C4.80817 18.8137 4.45531 18.8375 4.11713 18.9289C3.77895 19.0202 3.46207 19.1772 3.1846 19.391C2.90713 19.6049 2.67451 19.8712 2.50002 20.175C2.14003 20.7922 2.03441 21.5253 2.2055 22.219C2.3766 22.9127 2.81099 23.5126 3.41668 23.8916C3.83183 24.1416 4.30709 24.2741 4.79168 24.275C5.01111 24.2765 5.22974 24.2485 5.44168 24.1916C5.79721 24.1009 6.13052 23.9387 6.42125 23.7148C6.71198 23.491 6.95403 23.2102 7.13262 22.8897C7.31121 22.5691 7.4226 22.2156 7.45997 21.8505C7.49735 21.4855 7.45994 21.1167 7.35002 20.7666L10.5833 18.9C11.0176 19.4666 11.5512 19.9495 12.1583 20.325C13.3234 21.0596 14.7248 21.322 16.0767 21.0587C17.4286 20.7955 18.6291 20.0264 19.4333 18.9083L22.625 20.75C22.4746 21.3183 22.5108 21.92 22.7284 22.4661C22.946 23.0123 23.3333 23.4741 23.8333 23.7833C24.2451 24.0342 24.7179 24.1668 25.2 24.1666C25.6662 24.1684 26.1246 24.0467 26.5285 23.814C26.9325 23.5813 27.2677 23.2458 27.5 22.8416C27.8473 22.2283 27.9458 21.5051 27.7752 20.8212C27.6046 20.1373 27.178 19.545 26.5833 19.1666ZM5.83335 22.1833C5.7501 22.3193 5.63986 22.4368 5.50943 22.5285C5.379 22.6203 5.23116 22.6843 5.07502 22.7166C4.92326 22.7602 4.76406 22.7716 4.60764 22.7501C4.45122 22.7286 4.30103 22.6746 4.16668 22.5916C3.89416 22.4226 3.69822 22.1539 3.62044 21.8428C3.54265 21.5316 3.58913 21.2024 3.75002 20.925C3.82878 20.7885 3.93437 20.6695 4.0604 20.5749C4.18644 20.4804 4.33031 20.4124 4.48335 20.375C4.57559 20.3489 4.67083 20.3349 4.76668 20.3333C4.9882 20.3339 5.20498 20.3974 5.39168 20.5166C5.66843 20.6817 5.8696 20.9485 5.95214 21.26C6.03468 21.5715 5.99204 21.9029 5.83335 22.1833ZM13.9833 3.40832C14.0621 3.27188 14.1677 3.1528 14.2937 3.05828C14.4198 2.96375 14.5636 2.89573 14.7167 2.85832C14.8089 2.83223 14.9042 2.81823 15 2.81665C15.2113 2.81764 15.4185 2.87519 15.6 2.98332C15.8725 3.15241 16.0685 3.42102 16.1463 3.73217C16.224 4.04332 16.1776 4.37253 16.0167 4.64998C15.9379 4.78642 15.8323 4.9055 15.7063 5.00002C15.5803 5.09455 15.4364 5.16257 15.2833 5.19998C15.1353 5.23999 14.9807 5.24954 14.8289 5.22806C14.677 5.20657 14.5311 5.15449 14.4 5.07498C14.1275 4.90588 13.9316 4.63727 13.8538 4.32613C13.776 4.01498 13.8225 3.68577 13.9833 3.40832V3.40832ZM15.9917 19.5083C15.4763 19.6416 14.9395 19.6704 14.4129 19.5931C13.8862 19.5158 13.3804 19.334 12.925 19.0583C11.9849 18.4812 11.3077 17.5592 11.0383 16.4894C10.769 15.4196 10.9287 14.2869 11.4833 13.3333C11.8409 12.7174 12.3539 12.2062 12.971 11.8508C13.5882 11.4955 14.2879 11.3084 15 11.3083C15.7211 11.3066 16.4293 11.4995 17.05 11.8666C17.9902 12.4438 18.6673 13.3658 18.9367 14.4356C19.2061 15.5053 19.0464 16.6381 18.4917 17.5916C18.2241 18.0619 17.8651 18.4738 17.4357 18.803C17.0063 19.1322 16.5153 19.372 15.9917 19.5083ZM26.2 22.075C26.0389 22.3507 25.7753 22.5514 25.4667 22.6333C25.3181 22.6721 25.1632 22.6803 25.0113 22.6574C24.8595 22.6344 24.7139 22.5809 24.5833 22.5C24.3108 22.3309 24.1149 22.0623 24.0371 21.7511C23.9593 21.44 24.0058 21.1108 24.1667 20.8333C24.2415 20.6855 24.3472 20.5554 24.4766 20.4519C24.6059 20.3484 24.756 20.2739 24.9167 20.2333C25.0109 20.225 25.1058 20.225 25.2 20.2333C25.4027 20.2317 25.6018 20.2865 25.775 20.3916C26.0534 20.5596 26.2543 20.8306 26.3339 21.1459C26.4135 21.4611 26.3654 21.795 26.2 22.075ZM6.70835 8.33332C7.90221 6.92302 9.43696 5.84152 11.1667 5.19165C10.9992 4.6329 10.951 4.04523 11.025 3.46665C8.85811 4.19113 6.92842 5.49006 5.44168 7.22498C5.29471 7.39295 5.22048 7.61243 5.23533 7.83513C5.25017 8.05783 5.35288 8.26551 5.52085 8.41248C5.68882 8.55946 5.9083 8.63369 6.131 8.61884C6.35369 8.60399 6.56138 8.50129 6.70835 8.33332V8.33332Z" fill="#BFBFBF"/>
<path d="M20.5583 6.02498C21.5841 6.64049 22.5019 7.42031 23.275 8.33331C23.3461 8.41648 23.4329 8.48482 23.5305 8.53444C23.628 8.58406 23.7344 8.61398 23.8435 8.62249C23.9526 8.631 24.0623 8.61794 24.1664 8.58405C24.2704 8.55016 24.3668 8.49611 24.45 8.42497C24.5332 8.35384 24.6015 8.26702 24.6511 8.16948C24.7007 8.07193 24.7307 7.96557 24.7392 7.85646C24.7477 7.74735 24.7346 7.63763 24.7007 7.53357C24.6668 7.42951 24.6128 7.33315 24.5416 7.24998C23.6517 6.19411 22.5929 5.29302 21.4083 4.58331C20.6314 4.13158 19.8105 3.76022 18.9583 3.47498C19.042 4.04948 18.9993 4.63532 18.8333 5.19164C19.43 5.422 20.007 5.70071 20.5583 6.02498Z" fill="#BFBFBF"/>
</g>
<defs>
<clipPath id="clip0_1_2220">
<rect width="30" height="30" fill="white"/>
</clipPath>
</defs>
</svg>
