<svg width="16" height="26" viewBox="0 0 16 26" fill="none" xmlns="http://www.w3.org/2000/svg">
<path d="M7.93283 12.5346L7.85965 12.5059L7.78119 12.501C6.03766 12.392 4.78567 10.9957 4.99614 9.31202L5 9.28113V9.25V8C5 6.15114 6.40114 4.75 8.25 4.75C9.66131 4.75 10.8442 5.61373 11.2757 6.90811L11.3896 7.25H11.75H13H13.6682L13.4797 6.60892C12.7993 4.29565 10.7464 2.5 8.125 2.5C5.09886 2.5 2.625 4.97386 2.625 8V20.5C2.625 22.1511 3.97386 23.5 5.625 23.5H10.625C12.2761 23.5 13.625 22.1511 13.625 20.5V17C13.625 15.6389 12.7206 14.4814 11.4531 13.9181L11.443 13.9136L11.4328 13.9096L7.93283 12.5346ZM9.75 8C9.75 7.51138 9.58494 7.06534 9.2598 6.7402C8.93466 6.41506 8.48862 6.25 8 6.25C7.51138 6.25 7.06534 6.41506 6.7402 6.7402C6.41506 7.06534 6.25 7.51138 6.25 8V9.25C6.25 9.73862 6.41506 10.1847 6.7402 10.5098C7.06534 10.8349 7.51138 11 8 11H8.40064L11.9291 12.46C13.7635 13.2645 15 14.9701 15 17V20.5C15 22.9739 12.9739 25 10.5 25H5.5C3.02614 25 1 22.9739 1 20.5V8C1 4.15114 4.15114 1 8 1C11.8489 1 15 4.15114 15 8C15 8.26138 14.9151 8.44034 14.8027 8.5527C14.6903 8.66506 14.5114 8.75 14.25 8.75H10.5C10.2386 8.75 10.0597 8.66506 9.9473 8.5527C9.83494 8.44034 9.75 8.26138 9.75 8Z" fill="#5A5E5F" stroke="#5A5E5F"/>
</svg>
