<svg width="16" height="26" viewBox="0 0 16 26" fill="none" xmlns="http://www.w3.org/2000/svg">
<path d="M8 6.75C8.75 6.75 9.25 7.25 9.25 8C9.25 8.75 9.75 9.25 10.5 9.25H14.25C15 9.25 15.5 8.75 15.5 8C15.5 3.875 12.125 0.5 8 0.5C3.875 0.5 0.5 3.875 0.5 8V20.5C0.5 23.25 2.75 25.5 5.5 25.5H10.5C13.25 25.5 15.5 23.25 15.5 20.5V17C15.5 14.75 14.125 12.875 12.125 12L8.5 10.5H8C7.25 10.5 6.75 10 6.75 9.25V8C6.75 7.25 7.25 6.75 8 6.75ZM7.75 13L11.25 14.375C12.375 14.875 13.125 15.875 13.125 17V20.5C13.125 21.875 12 23 10.625 23H5.625C4.25 23 3.125 21.875 3.125 20.5V8C3.125 5.25 5.375 3 8.125 3C10.5 3 12.375 4.625 13 6.75H11.75C11.25 5.25 9.875 4.25 8.25 4.25C6.125 4.25 4.5 5.875 4.5 8V9.25C4.25 11.25 5.75 12.875 7.75 13Z" fill="#C0C0C0"/>
</svg>
