<svg width="1024" height="1024" viewBox="0 0 1024 1024" fill="none" xmlns="http://www.w3.org/2000/svg">
<path d="M512 64C264.6 64 64 264.6 64 512C64 759.4 264.6 960 512 960C759.4 960 960 759.4 960 512C960 264.6 759.4 64 512 64ZM512 884C306.6 884 140 717.4 140 512C140 306.6 306.6 140 512 140C717.4 140 884 306.6 884 512C884 717.4 717.4 884 512 884Z" fill="#C0C0C0"/>
<path d="M623.6 316.7C593.6 290.4 554 276 512 276C470 276 430.4 290.5 400.4 316.7C369.2 344 352 380.7 352 420V427.6C352 432 355.6 435.6 360 435.6H408C412.4 435.6 416 432 416 427.6V420C416 375.9 459.1 340 512 340C564.9 340 608 375.9 608 420C608 451.1 586 479.6 551.9 492.7C530.7 500.8 512.7 515 499.8 533.6C486.7 552.6 479.9 575.4 479.9 598.5V620C479.9 624.4 483.5 628 487.9 628H535.9C540.3 628 543.9 624.4 543.9 620V597.3C543.952 587.592 546.928 578.125 552.44 570.134C557.952 562.142 565.744 555.997 574.8 552.5C633.8 529.8 671.9 477.8 671.9 420C672 380.7 654.8 344 623.6 316.7ZM472 732C472 742.609 476.214 752.783 483.716 760.284C491.217 767.786 501.391 772 512 772C522.609 772 532.783 767.786 540.284 760.284C547.786 752.783 552 742.609 552 732C552 721.391 547.786 711.217 540.284 703.716C532.783 696.214 522.609 692 512 692C501.391 692 491.217 696.214 483.716 703.716C476.214 711.217 472 721.391 472 732Z" fill="#C0C0C0"/>
</svg>
