<svg width="22" height="28" viewBox="0 0 22 28" fill="none" xmlns="http://www.w3.org/2000/svg">
<path d="M15.5162 22.7464L15.691 22.9387C15.6914 22.9383 15.6918 22.938 15.6922 22.9376C15.7374 22.8965 15.7824 22.8539 15.8265 22.8113C17.6066 23.0914 18.8771 23.4859 19.6935 23.8672C20.1133 24.0634 20.3953 24.2479 20.5637 24.3979C20.639 24.4649 20.679 24.5135 20.6999 24.543C20.6926 24.5532 20.6831 24.5654 20.6709 24.5797C20.6021 24.6602 20.4787 24.768 20.2824 24.8938C19.8917 25.1442 19.28 25.4228 18.4418 25.6823C16.7705 26.1997 14.267 26.6203 11 26.6203C7.73296 26.6203 5.22946 26.1997 3.55822 25.6823C2.71999 25.4228 2.1083 25.1442 1.7176 24.8938C1.52134 24.768 1.39791 24.6602 1.32912 24.5797C1.31691 24.5654 1.30742 24.5532 1.30008 24.5431C1.32096 24.5135 1.36097 24.4651 1.43613 24.3982C1.60442 24.2483 1.88631 24.0642 2.30605 23.8686C3.1388 23.4807 4.44433 23.0802 6.28157 22.8038L15.5191 22.7473C15.5181 22.747 15.5172 22.7467 15.5162 22.7464ZM15.5162 22.7464L15.5106 22.7402L15.5093 22.7442C15.5116 22.7449 15.5139 22.7457 15.5162 22.7464ZM14.0598 21.1743L14.059 21.1751C13.2097 21.9604 12.4988 22.4664 11.9664 22.7729C11.6999 22.9263 11.4826 23.027 11.3188 23.0881C11.2369 23.1186 11.1722 23.1378 11.1241 23.149C11.0987 23.1549 11.0809 23.1579 11.0699 23.1594C10.9533 23.1419 10.7286 23.0646 10.3908 22.8795C10.0416 22.6881 9.61896 22.4083 9.14869 22.0479C8.20892 21.3277 7.10575 20.3064 6.05344 19.0833C3.93431 16.6201 2.09687 13.4277 2.09687 10.2922C2.09687 7.93091 3.03488 5.66636 4.70454 3.9967C6.3742 2.32704 8.63874 1.38904 11 1.38904C13.3613 1.38904 15.6258 2.32704 17.2955 3.9967C18.9651 5.66636 19.9031 7.93091 19.9031 10.2922C19.9031 12.2799 19.1384 14.3659 18.0085 16.2897C16.8813 18.209 15.4127 19.929 14.0598 21.1743ZM11 4.1906L10.9995 4.1906C9.67893 4.19198 8.41286 4.71718 7.4791 5.65095C6.54533 6.58471 6.02013 7.85078 6.01875 9.17133V9.17185C6.01875 10.157 6.3109 11.1201 6.85824 11.9393C7.40559 12.7584 8.18355 13.3969 9.09376 13.7739C10.004 14.1509 11.0055 14.2496 11.9718 14.0574C12.9381 13.8652 13.8256 13.3908 14.5223 12.6941C15.2189 11.9975 15.6933 11.1099 15.8855 10.1436C16.0777 9.17737 15.9791 8.17581 15.6021 7.26561C15.2251 6.3554 14.5866 5.57744 13.7674 5.03009C12.9483 4.48275 11.9852 4.1906 11 4.1906Z" fill="#5A5E5F" stroke="#5A5E5F"/>
</svg>
