<svg width="27" height="22" viewBox="0 0 27 22" fill="none" xmlns="http://www.w3.org/2000/svg">
<path d="M24.3683 7.76156V21.0885C24.3683 21.2577 24.2413 21.4269 24.0298 21.4269H18.8683C18.9106 21.2154 18.9529 21.0039 18.9106 20.7923V17.4077C18.9106 14.4462 16.5413 12.0769 13.5798 12.0769C10.6183 12.0769 8.24902 14.4462 8.24902 17.4077V20.7923C8.24902 21.0039 8.24902 21.2154 8.29133 21.4269H3.08748C2.91825 21.4269 2.74902 21.3 2.74902 21.0885V7.76156C2.74902 7.59233 2.87595 7.4231 3.08748 7.4231H24.0298C24.2413 7.4231 24.3683 7.55002 24.3683 7.76156Z" fill="white" stroke="#CCCCCC" stroke-width="0.719231" stroke-linecap="round" stroke-linejoin="round"/>
<path d="M25.9334 6.40776V3.48853H1.22571V7.38083H25.9334V6.40776Z" fill="white" stroke="#CCCCCC" stroke-width="0.719231" stroke-linecap="round" stroke-linejoin="round"/>
<path d="M3.93301 6.40777C3.80608 6.45008 3.63685 6.36547 3.55224 6.28085C3.46762 6.19623 3.42532 6.027 3.42532 5.90008V4.96931C3.38301 4.84239 3.46762 4.67316 3.55224 4.58854C3.63685 4.46162 3.80608 4.41931 3.93301 4.41931C4.05993 4.41931 4.18685 4.46162 4.27147 4.58854C4.35609 4.71547 4.39839 4.80008 4.35608 4.927V5.85777C4.35608 5.9847 4.35609 6.11162 4.27147 6.19623C4.18685 6.36547 4.05993 6.40777 3.93301 6.40777ZM7.82532 6.40777C7.69839 6.45008 7.52916 6.36547 7.44455 6.28085C7.35993 6.19623 7.31762 6.027 7.31762 5.90008V4.96931C7.27532 4.84239 7.35993 4.67316 7.44455 4.58854C7.52916 4.50393 7.69839 4.46162 7.82532 4.46162C7.95224 4.46162 8.07916 4.50393 8.16378 4.63085C8.24839 4.71547 8.2907 4.84239 8.24839 4.96931V5.90008C8.24839 6.027 8.24839 6.15393 8.16378 6.23854C8.03685 6.36547 7.95224 6.40777 7.82532 6.40777ZM11.6753 6.40777C11.5484 6.45008 11.3792 6.36547 11.2945 6.28085C11.2099 6.19623 11.1676 6.027 11.1676 5.90008V4.96931C11.1253 4.84239 11.2099 4.67316 11.2945 4.58854C11.3792 4.50393 11.5484 4.46162 11.6753 4.46162C11.8022 4.46162 11.9292 4.50393 12.0138 4.63085C12.0984 4.75777 12.1407 4.84239 12.0984 4.96931V5.90008C12.0984 6.027 12.0984 6.15393 12.0138 6.23854C11.9292 6.36547 11.8022 6.40777 11.6753 6.40777ZM15.483 6.40777C15.3561 6.40777 15.2292 6.36547 15.1445 6.23854C15.0599 6.15393 15.0176 6.027 15.0599 5.90008V4.96931C15.0599 4.84239 15.0599 4.71547 15.1445 4.63085C15.2292 4.54623 15.3561 4.46162 15.483 4.46162C15.6099 4.41931 15.7792 4.50393 15.8638 4.58854C15.9484 4.67316 15.9907 4.84239 15.9907 4.96931V5.90008C16.033 6.027 15.9484 6.19623 15.8638 6.28085C15.7792 6.36547 15.6099 6.45008 15.483 6.40777ZM19.3753 6.40777C19.2484 6.40777 19.1215 6.36547 19.0369 6.23854C18.9522 6.15393 18.9099 6.027 18.9522 5.90008V4.96931C18.9522 4.84239 18.9522 4.71547 19.0369 4.63085C19.1215 4.54623 19.2484 4.46162 19.3753 4.46162C19.5022 4.41931 19.6715 4.50393 19.7561 4.58854C19.8407 4.67316 19.883 4.84239 19.883 4.96931V5.90008C19.9253 6.027 19.8407 6.19623 19.7561 6.28085C19.6292 6.36547 19.5022 6.45008 19.3753 6.40777ZM23.2253 6.40777C23.0984 6.40777 22.9715 6.36547 22.8869 6.23854C22.8022 6.15393 22.7599 6.027 22.8022 5.90008V4.96931C22.8022 4.84239 22.8022 4.71547 22.8869 4.63085C22.9715 4.54623 23.0984 4.46162 23.2253 4.46162C23.3522 4.41931 23.5215 4.50393 23.6061 4.58854C23.6907 4.67316 23.733 4.84239 23.733 4.96931V5.90008C23.7753 6.027 23.6907 6.19623 23.6061 6.28085C23.5215 6.36547 23.3522 6.45008 23.2253 6.40777Z" fill="#FFCC09"/>
<path d="M17.1753 1.07703H9.98298H2.70605V3.48856H24.4522V1.07703H17.1753Z" fill="white" stroke="#CCCCCC" stroke-width="0.719231" stroke-linecap="round" stroke-linejoin="round"/>
</svg>
