<svg width="30" height="30" viewBox="0 0 30 30" fill="none" xmlns="http://www.w3.org/2000/svg">
<g clip-path="url(#clip0_1_2213)">
<path d="M13.75 21.25H16.25V13.75H13.75V21.25ZM15 2.5C8.09375 2.5 2.5 8.09375 2.5 15C2.5 21.9062 8.09375 27.5 15 27.5C21.9062 27.5 27.5 21.9062 27.5 15C27.5 8.09375 21.9062 2.5 15 2.5ZM15 25C9.4875 25 5 20.5125 5 15C5 9.4875 9.4875 5 15 5C20.5125 5 25 9.4875 25 15C25 20.5125 20.5125 25 15 25ZM13.75 11.25H16.25V8.75H13.75V11.25Z" fill="#5A5E5F"/>
</g>
<defs>
<clipPath id="clip0_1_2213">
<rect width="30" height="30" fill="white"/>
</clipPath>
</defs>
</svg>
