<svg width="30" height="30" viewBox="0 0 30 30" fill="none" xmlns="http://www.w3.org/2000/svg">
<path d="M15.0562 24.6609C15.4359 24.6609 16.6547 24.1547 18.3984 22.5422C21.1688 19.9922 24.4031 15.5109 24.4031 11.2922C24.4031 8.7983 23.4124 6.40658 21.649 4.64315C19.8856 2.87972 17.4939 1.88904 15 1.88904C12.5061 1.88904 10.1144 2.87972 8.35099 4.64315C6.58756 6.40658 5.59687 8.7983 5.59687 11.2922C5.59687 17.9203 13.3172 24.5203 15.0562 24.6609ZM15 5.6906C15.8863 5.6906 16.7527 5.95342 17.4896 6.44583C18.2266 6.93823 18.801 7.63811 19.1401 8.45695C19.4793 9.27579 19.5681 10.1768 19.3951 11.0461C19.2222 11.9154 18.7954 12.7139 18.1687 13.3406C17.542 13.9673 16.7435 14.3941 15.8742 14.567C15.005 14.7399 14.1039 14.6512 13.2851 14.312C12.4663 13.9728 11.7664 13.3984 11.274 12.6615C10.7816 11.9246 10.5188 11.0582 10.5188 10.1719C10.52 8.98373 10.9925 7.84463 11.8326 7.0045C12.6728 6.16437 13.8119 5.69184 15 5.6906ZM25.2188 25.5422C25.2188 26.4187 21.6141 28.1203 15 28.1203C8.38594 28.1203 4.78125 26.4187 4.78125 25.5422C4.78125 24.9562 6.46875 23.8687 10.2281 23.3062C10.2934 23.2959 10.3567 23.2753 10.4156 23.2453C12.1781 24.9094 13.9031 25.9781 14.9438 26.0578H15.075C16.4813 26.0578 18.5297 24.3281 19.3547 23.5687C19.4578 23.475 19.5609 23.3719 19.6641 23.2687C19.6994 23.2802 19.7354 23.2896 19.7719 23.2969C23.5313 23.8687 25.2188 24.9562 25.2188 25.5422Z" fill="#C0C0C0"/>
</svg>
