<svg width="31" height="31" viewBox="0 0 31 31" fill="none" xmlns="http://www.w3.org/2000/svg">
<path d="M23.7033 5.79236C23.3648 5.79236 23.0264 5.83467 22.6879 6.0039C23.7033 6.46928 24.3802 7.48467 24.3802 8.58467C24.3802 9.72697 23.7033 10.7424 22.6879 11.2077C23.0264 11.3347 23.3648 11.4193 23.7033 11.377C25.2264 11.377 26.4956 10.1077 26.4956 8.58467C26.4956 7.82313 26.1995 7.1462 25.6918 6.5962C25.1418 6.08851 24.4648 5.79236 23.7033 5.79236ZM8.93793 7.52697C8.811 7.23082 8.64177 6.93467 8.43023 6.68082C7.83793 6.08851 6.94947 5.91928 6.14562 6.25774C5.00331 6.68082 4.411 7.90774 4.79177 9.05005C5.00331 9.60005 5.38408 10.0231 5.93408 10.277C6.48408 10.5308 7.07639 10.5308 7.58408 10.3193" fill="white"/>
<path d="M8.93793 7.52697C8.811 7.23082 8.64177 6.93467 8.43023 6.68082C7.83793 6.08851 6.94947 5.91928 6.14562 6.25774C5.00331 6.68082 4.411 7.90774 4.79177 9.05005C5.00331 9.60005 5.38408 10.0231 5.93408 10.277C6.48408 10.5308 7.07639 10.5308 7.58408 10.3193M23.7033 5.79236C23.3648 5.79236 23.0264 5.83467 22.6879 6.0039C23.7033 6.46928 24.3802 7.48467 24.3802 8.58467C24.3802 9.72697 23.7033 10.7424 22.6879 11.2077C23.0264 11.3347 23.3648 11.4193 23.7033 11.377C25.2264 11.377 26.4956 10.1077 26.4956 8.58467C26.4956 7.82313 26.1995 7.1462 25.6918 6.5962C25.1418 6.08851 24.4648 5.79236 23.7033 5.79236Z" stroke="#FFCC09" stroke-width="0.761538" stroke-linecap="round" stroke-linejoin="round"/>
<path d="M13.2963 15.4808L6.82321 8.45774C6.69629 8.28851 6.7386 8.03467 6.99244 8.03467H21.0386C21.1655 8.03467 21.2501 8.07698 21.2924 8.2039C21.3348 8.28851 21.2924 8.41544 21.2078 8.50005L14.8194 15.4808C14.6078 15.6924 14.354 15.8193 14.0578 15.8193C13.7617 15.8616 13.5078 15.7347 13.2963 15.4808Z" fill="white" stroke="#CCCCCC" stroke-width="0.761538" stroke-linecap="round" stroke-linejoin="round"/>
<path d="M8.47253 10.277L13.2956 15.4808C13.5071 15.6924 13.761 15.8193 14.0571 15.8193C14.3533 15.8193 14.6072 15.6924 14.8187 15.4808L19.5995 10.277H8.47253Z" fill="white" stroke="#CCCCCC" stroke-width="0.761538" stroke-linecap="round" stroke-linejoin="round"/>
<path d="M14.0574 16.1155V24.9578" stroke="#CCCCCC" stroke-width="0.761538" stroke-linecap="round" stroke-linejoin="round"/>
<path d="M11.5604 24.9578H16.5527" stroke="#CCCCCC" stroke-width="0.761538" stroke-linecap="round" stroke-linejoin="round"/>
</svg>
