<svg width="7" height="7" viewBox="0 0 7 7" fill="none" xmlns="http://www.w3.org/2000/svg">
<path d="M4.9001 4.73202C4.59035 4.95547 4.21259 5.06434 3.83143 5.04002H2.94477V6.53336H2.0581V2.33336H3.88743C4.25147 2.31405 4.61 2.42858 4.89543 2.65536C5.02862 2.78431 5.13158 2.94116 5.19694 3.11464C5.2623 3.28811 5.28842 3.47391 5.27343 3.65869C5.29744 3.85423 5.27627 4.05268 5.21154 4.23876C5.14682 4.42483 5.04027 4.59358 4.9001 4.73202ZM4.2001 3.22002C4.06524 3.12114 3.90045 3.07171 3.73343 3.08002H2.94477V4.31669H3.73343C3.90201 4.32562 4.06802 4.27249 4.2001 4.16736C4.25916 4.10563 4.30462 4.0322 4.33355 3.95183C4.36249 3.87145 4.37426 3.7859 4.3681 3.70069C4.37896 3.61304 4.36945 3.52408 4.34032 3.44071C4.31118 3.35734 4.26319 3.28182 4.2001 3.22002ZM6.72477 1.96469C6.75033 1.90893 6.7529 1.84536 6.73194 1.78772C6.71098 1.73007 6.66817 1.683 6.61277 1.65669L3.5001 0.210022L0.368768 1.65669C0.340884 1.66956 0.315808 1.68779 0.294971 1.71035C0.274135 1.73292 0.257946 1.75936 0.247329 1.78818C0.236712 1.81699 0.231875 1.84762 0.233095 1.87831C0.234314 1.90899 0.241565 1.93914 0.254435 1.96702C0.267304 1.99491 0.28554 2.01998 0.3081 2.04082C0.330661 2.06166 0.357105 2.07784 0.385922 2.08846C0.414739 2.09908 0.445365 2.10391 0.476052 2.1027C0.506738 2.10148 0.536884 2.09422 0.564768 2.08136L3.5001 0.723355L6.43543 2.07669C6.49119 2.10225 6.55477 2.10483 6.61241 2.08387C6.67005 2.0629 6.71712 2.02009 6.74343 1.96469H6.72477Z" fill="#656768"/>
</svg>
