<svg width="362" height="452" viewBox="0 0 362 452" fill="none" xmlns="http://www.w3.org/2000/svg">
<path d="M181 271.167C193.421 271.167 204.058 266.74 212.91 257.888C221.748 249.05 226.167 238.421 226.167 226C226.167 213.579 221.748 202.943 212.91 194.09C204.058 185.252 193.421 180.833 181 180.833C168.579 180.833 157.95 185.252 149.112 194.09C140.26 202.943 135.833 213.579 135.833 226C135.833 238.421 140.26 249.05 149.112 257.888C157.95 266.74 168.579 271.167 181 271.167ZM181 404.408C196.432 400.268 211.774 392.643 227.025 381.532C242.261 370.436 255.525 358.113 266.817 344.563L226.167 303.913C219.392 308.053 212.15 311.162 204.441 313.24C196.718 315.302 188.904 316.333 181 316.333C156.158 316.333 134.892 307.488 117.202 289.798C99.5118 272.108 90.6666 250.842 90.6666 226C90.6666 201.158 99.5118 179.892 117.202 162.202C134.892 144.512 156.158 135.667 181 135.667C205.842 135.667 227.108 144.512 244.798 162.202C262.488 179.892 271.333 201.158 271.333 226C271.333 234.281 270.302 242.275 268.239 249.984C266.162 257.707 263.053 265.145 258.912 272.296L292.788 306.171C300.315 290.739 306.149 274.554 310.29 257.617C314.43 240.679 316.5 223.365 316.5 205.675V98.9688L181 48.1563L45.5 98.9688V205.675C45.5 251.218 58.2972 292.621 83.8916 329.883C109.486 367.146 141.856 391.988 181 404.408ZM181 451.833C128.682 438.66 85.4951 408.639 51.4394 361.771C17.3687 314.918 0.333313 262.886 0.333313 205.675V67.9168L181 0.166748L361.667 67.9168V205.675C361.667 262.886 344.639 314.918 310.583 361.771C276.512 408.639 233.318 438.66 181 451.833Z" fill="#C0C0C0"/>
</svg>
