<svg width="27" height="27" viewBox="0 0 27 27" fill="none" xmlns="http://www.w3.org/2000/svg">
<path d="M19.6455 0.21334C17.4445 0.110978 10.6886 -0.145078 4.70025 8.24895C2.90876 10.7573 -0.827627 17.1038 1.98749 22.9898C1.47046 23.5481 0.958626 24.1113 0.452054 24.6792C0.144967 25.0367 0.144967 25.6002 0.503384 25.9073C0.65678 26.0606 0.861505 26.112 1.06623 26.112C1.32199 26.112 1.52701 26.0093 1.73174 25.8046C3.06245 24.3205 5.46812 21.7614 8.07852 19.0487C9.76735 20.0723 11.3031 20.4817 13.1969 20.4817C13.6064 20.4817 14.0158 20.4817 14.4766 20.4301C14.9374 20.3791 15.2949 19.9696 15.2445 19.5091C15.1935 19.0487 14.7837 18.6902 14.3232 18.7413C12.378 18.895 10.945 18.6386 9.35849 17.7693C13.2483 13.7765 17.3431 9.57967 19.2369 7.68611C19.5951 7.32769 19.5951 6.81588 19.2369 6.45746C18.8782 6.09934 18.3664 6.09934 18.0089 6.45746C16.5752 7.89083 14.1182 10.3989 11.4057 13.163C11.2524 11.9853 11.3547 10.5012 11.7128 9.73336C11.9176 9.27258 11.7128 8.76077 11.3034 8.55604C10.8429 8.35132 10.3311 8.55604 10.1264 8.96549C9.46115 10.3475 9.40982 12.9576 9.97297 14.5444V14.5957C7.61833 17.0014 5.21296 19.5094 3.3191 21.5564C1.42524 16.643 4.59878 11.3712 6.13422 9.22184C10.9957 2.36295 16.1649 1.80011 19.5945 1.9535C21.1812 2.00483 22.8193 2.82374 23.8427 4.00076C24.4058 4.66597 25.0713 5.68989 24.9686 7.07164C24.866 8.70973 23.689 10.1425 22.7161 11.0638C20.8228 12.8042 18.4174 13.9813 15.9088 14.442C15.4486 14.5444 15.0905 14.9544 15.1932 15.466C15.2946 15.9262 15.705 16.2849 16.2165 16.1822C17.9056 15.9262 19.5945 15.3117 21.0792 14.442C21.847 15.8238 22.7164 18.3321 21.3863 20.7381C19.6971 23.7576 15.0389 25.7025 11.8146 24.7302C11.3541 24.5765 9.61366 24.0131 7.77113 22.7337C7.36198 22.478 6.84987 22.58 6.54278 22.9898C6.28672 23.3995 6.38938 23.9113 6.79854 24.2181C8.18058 25.1394 9.86971 26.0096 11.3028 26.4188C12.0196 26.6238 12.8382 26.7775 13.6577 26.7775C17.2407 26.7775 21.2329 24.6795 22.9217 21.6591C24.2521 19.2534 24.1503 16.3362 22.563 13.5721C23.0243 13.2137 23.5359 12.8556 23.945 12.4461C25.6342 10.8594 26.6073 9.06786 26.7601 7.32769C26.8628 5.79225 26.2994 4.25681 25.174 2.97713C24.5109 2.13993 23.6721 1.45849 22.7168 0.980935C21.7616 0.50338 20.7131 0.241348 19.6455 0.21334Z" fill="#656768"/>
</svg>
