<svg width="24" height="16" viewBox="0 0 24 16" fill="none" xmlns="http://www.w3.org/2000/svg">
<path d="M5.3 10.275C5 9.975 4.85833 9.61667 4.875 9.2C4.89167 8.78333 5.05833 8.45833 5.375 8.225C6.29167 7.525 7.31267 6.979 8.438 6.587C9.56267 6.19567 10.75 6 12 6C13.2667 6 14.4627 6.2 15.588 6.6C16.7127 7 17.7333 7.55833 18.65 8.275C18.9667 8.50833 19.1293 8.82933 19.138 9.238C19.146 9.646 19 10 18.7 10.3C18.4167 10.5833 18.071 10.7293 17.663 10.738C17.2543 10.746 16.875 10.6333 16.525 10.4C15.875 9.95 15.171 9.60433 14.413 9.363C13.6543 9.121 12.85 9 12 9C11.15 9 10.346 9.125 9.588 9.375C8.82933 9.625 8.13333 9.96667 7.5 10.4C7.13333 10.65 6.746 10.7627 6.338 10.738C5.92933 10.7127 5.58333 10.5583 5.3 10.275ZM1.05 6.05C0.766667 5.76667 0.625 5.42067 0.625 5.012C0.625 4.604 0.775 4.26667 1.075 4C2.55833 2.75 4.225 1.77067 6.075 1.062C7.925 0.354 9.9 0 12 0C14.1 0 16.075 0.354 17.925 1.062C19.775 1.77067 21.4417 2.75 22.925 4C23.225 4.26667 23.3793 4.6 23.388 5C23.396 5.4 23.25 5.75 22.95 6.05C22.6667 6.33333 22.321 6.48333 21.913 6.5C21.5043 6.51667 21.1333 6.39167 20.8 6.125C19.5833 5.14167 18.2293 4.375 16.738 3.825C15.246 3.275 13.6667 3 12 3C10.3333 3 8.75433 3.275 7.263 3.825C5.771 4.375 4.41667 5.14167 3.2 6.125C2.86667 6.39167 2.496 6.51667 2.088 6.5C1.67933 6.48333 1.33333 6.33333 1.05 6.05ZM12 16C11.4333 16 10.9583 15.8083 10.575 15.425C10.1917 15.0417 10 14.5667 10 14C10 13.4333 10.1917 12.9583 10.575 12.575C10.9583 12.1917 11.4333 12 12 12C12.5667 12 13.0417 12.1917 13.425 12.575C13.8083 12.9583 14 13.4333 14 14C14 14.5667 13.8083 15.0417 13.425 15.425C13.0417 15.8083 12.5667 16 12 16Z" fill="#656768"/>
</svg>
